<svg xmlns="http://www.w3.org/2000/svg">
  <symbol id="ST05" viewBox="0 0 30.066 30.066">
    <title>Hourglass (ST05)</title>    
    <g>
      <path d="M14.335,14.465c0,0-3.516-3.422-4.887-7.355V6.039h11.168V7.11c-1.782,4.343-4.887,7.355-4.887,7.355H14.335z"/>
      <path d="M24.642,4.907V3.219h1.602V0H3.823v3.219h1.6v1.688c0,2.579,4.628,9.622,4.848,10.13 c-0.216,0.508-4.848,7.551-4.848,10.119v1.687h-1.6v3.223h22.42v-3.223h-1.602v-1.687c0-2.581-4.631-9.577-4.875-10.125 C20.01,14.485,24.642,7.486,24.642,4.907z M23.039,25.156v1.687H7.024v-1.687c0-1.853,4.907-9.195,4.907-10.125 c0-0.929-4.907-8.269-4.907-10.124V3.219H23.04v1.688c0,1.855-4.948,9.195-4.948,10.124C18.093,15.961,23.039,23.303,23.039,25.156 z"/>
    </g>
  </symbol>

  <symbol id="SE04" viewBox="0 0 486.924 486.924">
    <title>Settings Menu (SE04)</title>
    <path transform="rotate(90, 243.462, 243.462)"
	  d="M401.835,304.641l-6.141-0.608c-11.126,0-21.675,2.28-31.524,5.928l-187.17-187.2
	     c3.648-9.849,5.928-20.398,5.928-31.524l-0.608-6.141c-3.222-47.454-42.316-85.058-90.59-85.058
	     c-14.045,0-27.208,3.435-39.094,9.12l60.586,60.586c3.192,3.192,5.381,6.961,6.84,10.944c3.982,10.761,1.824,23.347-6.84,32.041
	     c-5.928,5.928-13.71,8.907-21.492,8.907c-3.587,0-7.144-0.79-10.549-2.067c-3.982-1.52-7.752-3.648-10.944-6.87L9.652,52.143
	     c-5.685,11.886-9.12,25.049-9.12,39.094c0,48.274,37.604,87.368,85.058,90.59l6.141,0.608c11.126,0,21.675-2.28,31.524-5.897
	     l187.139,187.17c-3.587,9.849-5.867,20.398-5.867,31.524l0.638,6.141c3.162,47.484,42.286,85.058,90.56,85.058
	     c14.045,0,27.238-3.374,39.094-9.12l-60.586-60.586c-3.162-3.162-5.381-6.961-6.901-10.913
	     c-3.982-10.761-1.824-23.377,6.901-32.071c5.867-5.928,13.71-8.907,21.492-8.907c3.587,0,7.113,0.76,10.579,2.067
	     c3.982,1.49,7.782,3.618,10.913,6.84l60.586,60.586c5.715-11.917,9.12-25.049,9.12-39.094
	     C486.893,346.957,449.289,307.863,401.835,304.641z"/>
  </symbol>

  <symbol id="NA11" viewBox="0 0 32 32">
    <title>Close Window (NA11)</title>
    <g  style="stroke-width: 2;"> 
      <line x1="4" y1="4" x2="28" y2="28" />
      <line x1="4" y1="28" x2="28" y2="4" />      
    </g>
  </symbol>
</svg>
